Coordinates
version=1
nRows=10
nColumns=34
inDegrees=yes

Units are S.I. units (second, meters, Newtons, ...)
If the header above contains a line with 'inDegrees', this indicates whether rotational values are in degrees (yes) or radians (no).

endheader
time	pelvis_tilt	pelvis_list	pelvis_rotation	pelvis_tx	pelvis_ty	pelvis_tz	hip_flexion_r	hip_adduction_r	hip_rotation_r	knee_angle_r	ankle_angle_r	subtalar_angle_r	mtp_angle_r	hip_flexion_l	hip_adduction_l	hip_rotation_l	knee_angle_l	ankle_angle_l	subtalar_angle_l	mtp_angle_l	lumbar_extension	lumbar_bending	lumbar_rotation	arm_flex_r	arm_add_r	arm_rot_r	elbow_flex_r	pro_sup_r	arm_flex_l	arm_add_l	arm_rot_l	elbow_flex_l	pro_sup_l
      4.81666670	      8.80630435	      5.52523711	     -0.48460297	      0.50623510	      0.96174329	     -0.00749652	     18.32351460	      0.78031572	     -5.24916138	     38.37188256	    -33.13414762	    -35.00000000	      0.00000000	     39.58069724	     -5.63432055	     -6.31426325	     37.63111154	    -10.75009404	    -12.35772779	      0.00000000	    -31.33765476	     -6.30237783	      6.32934243	     47.86339540	     11.82998034	     48.40947544	    122.60431899	    110.31779765	     69.69874151	     23.07008545	     76.35050251	    123.35850020	     99.59138594
      4.83333330	      8.91025199	      6.17177830	     -0.32245473	      0.50143912	      0.96797238	     -0.00622956	     18.38852789	     -0.39682663	     -6.17831644	     37.08497023	    -36.90372877	    -35.00000000	      0.00000000	     39.95151167	     -5.25716783	     -6.18354604	     40.04867509	    -11.06987480	    -12.17171603	      0.00000000	    -31.26495809	     -6.78307430	      5.93158599	     47.66059772	     12.07187063	     47.10918702	    122.12839239	    110.32075292	     70.20741961	     23.23145275	     75.88011915	    123.24261391	     99.44890897
      4.85000000	      8.82412259	      6.65096216	      0.26809854	      0.50493747	      0.97209234	     -0.00713989	     18.60273333	     -1.31744648	     -6.50404199	     35.98957220	    -38.70125086	    -35.00000000	      0.00000000	     40.64506936	     -4.66126441	     -5.35750365	     42.81537048	    -10.33137543	    -11.52455522	      0.00000000	    -30.90339257	     -6.89805417	      5.88153896	     47.21708509	     12.22886371	     46.93761410	    122.45512398	    110.34630293	     70.33856803	     23.58531391	     76.13613256	    123.05896860	     99.31585274
      4.86666670	      8.65914280	      7.07580704	      0.78961102	      0.50647629	      0.97431171	     -0.00775733	     18.01457047	     -2.05874160	     -7.27956213	     35.61380517	    -38.45926797	    -35.00000000	      0.00000000	     41.20405304	     -4.09481977	     -4.83430326	     45.59082109	     -8.72070730	    -10.13258541	      0.00000000	    -30.27527993	     -7.06261188	      5.89295571	     46.43293237	     12.23081756	     47.49816344	    123.51011103	    110.39074051	     70.16755783	     23.93452861	     76.44092843	    122.77284231	     99.15784018
      4.88333330	      8.95801753	      7.49003684	      1.08031963	      0.51221159	      0.97400215	     -0.00981893	     16.92752356	     -2.76938278	     -8.13163129	     35.50045190	    -37.07443492	    -35.00000000	      0.00000000	     41.28289623	     -3.77478971	     -4.96126259	     48.98093498	     -6.75747529	     -8.21494180	      0.00000000	    -29.75968561	     -7.09742911	      6.15374604	     46.03612411	     12.18932239	     48.69454594	    124.88447557	    110.49016164	     69.88806177	     24.36504881	     76.37794929	    122.79580789	     98.97155954
      4.90000000	      7.98825511	      6.24966969	      1.98068138	      0.51420382	      0.97523926	     -0.00762957	     24.23612107	     -0.32239909	     -3.22543973	     34.28085763	     -4.07935368	    -35.00000000	      0.00000000	     44.27152283	     -4.73155365	     -4.16189542	     54.93068980	     -2.84001200	     -7.12254765	      0.00000000	    -28.91678846	     -5.94345071	      7.06498170	     45.88464135	     12.21690460	     51.47316855	    127.88979993	    110.85826158	     69.63616393	     25.32253748	     77.73643622	    122.88661035	     98.82715066
      4.91666670	      7.65270431	      3.07894424	      2.78247167	      0.51528446	      0.97812850	     -0.01071103	     30.43050482	      3.55630360	      2.66764941	     30.60407735	     13.70537836	    -27.06578488	      0.00000000	     46.33569574	     -6.92929091	     -1.57200406	     58.67315553	     -4.14214103	     -7.21343892	      0.00000000	    -28.08180444	     -2.31501991	      8.32488347	     45.62332738	     11.66580472	     52.96019484	    130.54399461	    111.48409298	     68.56441841	     26.64776110	     78.70653969	    122.09107866	     98.66032029
      4.93333330	      7.87672505	      1.39232282	      3.17219220	      0.51135158	      0.97890895	     -0.01220736	     33.22667924	      5.16062712	      4.75220718	     27.06276366	     18.51918953	    -20.31892164	      0.00000000	     46.66837016	     -7.75773932	     -0.01446474	     61.54696149	     -3.32159790	     -6.31665481	      0.00000000	    -27.88507312	     -0.01594135	      8.97757387	     46.17794529	     11.45053960	     54.40651720	    133.37812199	    111.80432789	     68.45585334	     27.43959953	     78.70487506	    121.99095397	     98.65003251
      4.95000000	      8.08327827	      1.32840479	      3.23114164	      0.51045782	      0.98000321	     -0.01153324	     34.50404756	      5.41414706	      6.69766427	     26.58585238	     20.64915226	    -17.16956279	      0.00000000	     46.29230599	     -8.01467338	     -0.05429328	     63.93490070	     -1.63804106	     -4.86485004	      0.00000000	    -27.42439112	      0.35969667	      8.98119263	     46.30779621	     11.74931332	     54.95429580	    134.92596306	    112.08741853	     68.37326962	     27.42452330	     78.99072764	    121.43364003	     98.69883934
      4.96666670	      8.03751207	      1.42223866	      2.76291733	      0.51169520	      0.97924382	     -0.01238331	     34.92167049	      5.88083551	      8.68668426	     27.67706813	     21.88024289	    -16.72197648	      0.00000000	     45.93177700	     -8.24001144	     -0.42654919	     65.69946969	     -1.23961221	     -3.46978524	      0.00000000	    -26.49407601	      0.55147526	      9.17562598	     46.39658584	     12.12259547	     55.61262519	    136.33601402	    112.22626007	     68.06125406	     27.04798595	     78.98640006	    121.22169561	     98.73492878
